<svg width="40" height="40" viewBox="0 0 40 40" fill="none" xmlns="http://www.w3.org/2000/svg">
<path d="M18.5099 39.19C17.8799 39.11 17.2499 39.06 16.6199 38.96C12.9571 38.4009 9.52803 36.814 6.7312 34.3836C3.93437 31.9532 1.88457 28.7791 0.819945 25.23C-0.669281 20.2652 -0.131237 14.9126 2.31634 10.3436C4.76392 5.7745 8.92173 2.36104 13.8799 0.850037C15.2612 0.410753 16.6927 0.148627 18.1399 0.0700073C18.2655 0.0602858 18.3895 0.0368045 18.5099 0H20.6499C21.2899 0.08 21.9399 0.130042 22.5799 0.230042C25.5474 0.69263 28.3691 1.83029 30.8275 3.55536C33.286 5.28043 35.3156 7.54682 36.7599 10.18C38.6618 13.6458 39.4706 17.606 39.0799 21.54C38.7194 25.0446 37.4238 28.3878 35.3286 31.2202C33.2334 34.0525 30.4156 36.2697 27.1699 37.64C25.4804 38.3673 23.6898 38.8327 21.8599 39.02C21.4499 39.02 21.0499 39.12 20.6499 39.17L18.5099 39.19ZM19.5699 37.42C23.097 37.424 26.5458 36.3812 29.4798 34.4237C32.4138 32.4663 34.7009 29.6822 36.0515 26.424C37.4022 23.1659 37.7556 19.5802 37.067 16.121C36.3784 12.6619 34.6788 9.48488 32.1835 6.99231C29.6881 4.49974 26.5092 2.80371 23.0492 2.11902C19.5893 1.43433 16.004 1.79176 12.7474 3.14606C9.49075 4.50036 6.70923 6.79063 4.75508 9.72681C2.80093 12.663 1.76203 16.113 1.76994 19.64C1.77524 24.3574 3.65293 28.8797 6.99051 32.2136C10.3281 35.5474 14.8526 37.42 19.5699 37.42Z" fill="#94B5DE"/>
<path d="M18.74 9.84003L19.94 11.03L12.33 18.69H29.33V20.48H12.48L20.02 28.08L18.72 29.4L9 19.64L18.74 9.84003Z" fill="#94B5DE"/>
</svg>
