<svg width="65" height="65" viewBox="0 0 65 65" fill="none" xmlns="http://www.w3.org/2000/svg">
<g opacity="0.75">
<path opacity="0.5" d="M32.5 65C50.4493 65 65 50.4493 65 32.5C65 14.5507 50.4493 0 32.5 0C14.5507 0 0 14.5507 0 32.5C0 50.4493 14.5507 65 32.5 65Z" fill="#606060"/>
<g opacity="0.5">
<path d="M21.2899 42.1599H17.5198C17.3379 42.1714 17.156 42.1365 16.9911 42.0587C16.8262 41.9809 16.6838 41.8626 16.577 41.7148C16.4701 41.5671 16.4025 41.3947 16.3802 41.2137C16.358 41.0328 16.3819 40.8491 16.4498 40.6799C16.5229 40.4767 16.6598 40.3025 16.84 40.1836C17.0203 40.0646 17.2342 40.0072 17.4498 40.0199H24.0298C24.2951 40.0199 24.5494 40.1253 24.7369 40.3128C24.9245 40.5004 25.0298 40.7547 25.0298 41.0199C25.0298 43.1799 25.0298 45.3466 25.0298 47.5199C25.0312 47.6643 25.0036 47.8074 24.9487 47.9409C24.8937 48.0745 24.8126 48.1957 24.7101 48.2973C24.6075 48.3989 24.4856 48.4789 24.3516 48.5326C24.2176 48.5863 24.0742 48.6126 23.9298 48.6099C23.7896 48.6106 23.6509 48.5819 23.5226 48.5255C23.3942 48.4691 23.2792 48.3863 23.1849 48.2826C23.0906 48.1789 23.0192 48.0565 22.9752 47.9234C22.9313 47.7903 22.9158 47.6494 22.9298 47.5099C22.9298 46.3999 22.9298 45.2899 22.9298 44.1799V43.6699L22.5198 44.0599C20.7698 45.8099 19.0198 47.5699 17.2498 49.3099C17.0422 49.5236 16.7844 49.6818 16.4998 49.7699C16.2892 49.8197 16.0682 49.7998 15.8698 49.7133C15.6715 49.6267 15.5066 49.4782 15.3998 49.2899C15.2847 49.1017 15.2306 48.8825 15.2449 48.6623C15.2593 48.4421 15.3413 48.2317 15.4799 48.0599C15.5853 47.9327 15.6988 47.8124 15.8198 47.6999L20.9898 42.5199C21.0198 42.4499 21.1199 42.3399 21.2899 42.1599Z" fill="white"/>
<path d="M22.8098 21.1601V18.5401C22.8098 18.2101 22.8098 17.8801 22.8098 17.5401C22.8017 17.3924 22.8235 17.2445 22.8739 17.1054C22.9243 16.9662 23.0022 16.8387 23.1031 16.7304C23.2039 16.6221 23.3255 16.5353 23.4607 16.4751C23.5959 16.4149 23.7418 16.3826 23.8898 16.3801C24.0381 16.3783 24.1852 16.4073 24.3217 16.4654C24.4583 16.5235 24.5812 16.6094 24.6828 16.7175C24.7843 16.8256 24.8623 16.9538 24.9117 17.0937C24.9611 17.2335 24.9809 17.3822 24.9698 17.5301C24.9698 19.2201 24.9698 20.9001 24.9698 22.5901C24.9698 22.9901 24.9698 23.3801 24.9698 23.7801C24.9857 23.9409 24.9669 24.1032 24.9146 24.2561C24.8624 24.409 24.778 24.549 24.6671 24.6665C24.5563 24.7841 24.4214 24.8764 24.2718 24.9374C24.1222 24.9984 23.9612 25.0266 23.7998 25.0201H17.5498C16.7398 25.0201 16.2598 24.5301 16.3298 23.8101C16.36 23.5414 16.4918 23.2944 16.6981 23.1197C16.9045 22.9449 17.1698 22.8556 17.4398 22.8701H21.2898L20.9598 22.5101L15.6098 17.1501C15.4417 17.0205 15.3114 16.8483 15.2323 16.6514C15.1531 16.4545 15.1281 16.24 15.1598 16.0301C15.1923 15.8534 15.2688 15.6878 15.3822 15.5484C15.4956 15.4091 15.6422 15.3006 15.8086 15.2328C15.975 15.1651 16.1557 15.1403 16.3342 15.1608C16.5127 15.1813 16.6831 15.2464 16.8298 15.3501C16.9794 15.4694 17.1198 15.5997 17.2498 15.7401L22.3698 20.8601C22.4698 20.9601 22.5498 21.0901 22.6498 21.2101L22.8098 21.1601Z" fill="white"/>
<path d="M43.8098 22.76H47.5398C47.6901 22.7445 47.842 22.7609 47.9855 22.8083C48.129 22.8557 48.2608 22.933 48.3723 23.035C48.4838 23.1371 48.5724 23.2615 48.6323 23.4003C48.6922 23.539 48.722 23.6889 48.7198 23.84C48.7238 23.9912 48.6952 24.1415 48.6357 24.2806C48.5763 24.4197 48.4875 24.5444 48.3755 24.646C48.2634 24.7476 48.1307 24.8237 47.9865 24.8693C47.8423 24.9149 47.6899 24.9288 47.5398 24.91H42.2698C41.9498 24.91 41.6198 24.91 41.2698 24.96C41.1133 24.9821 40.9539 24.9695 40.8029 24.9233C40.6518 24.877 40.5127 24.7982 40.3954 24.6924C40.2782 24.5865 40.1855 24.4562 40.1241 24.3107C40.0626 24.1651 40.0339 24.0079 40.0398 23.85C40.0398 21.75 40.0398 19.66 40.0398 17.56C40.0002 17.2915 40.0595 17.0177 40.2067 16.7896C40.3538 16.5615 40.5788 16.3947 40.8398 16.32C41.0096 16.2757 41.1876 16.2731 41.3586 16.3123C41.5297 16.3516 41.6887 16.4315 41.8222 16.5454C41.9557 16.6593 42.0598 16.8037 42.1255 16.9664C42.1912 17.1291 42.2167 17.3053 42.1998 17.48C42.1998 18.54 42.1998 19.59 42.1998 20.65V21.19L42.5898 20.83L47.7098 15.71C47.8126 15.6024 47.9229 15.5022 48.0398 15.41C48.1379 15.3213 48.2527 15.253 48.3774 15.209C48.5022 15.165 48.6344 15.1461 48.7665 15.1536C48.8985 15.161 49.0278 15.1946 49.1468 15.2523C49.2659 15.3101 49.3722 15.3908 49.4598 15.49C49.644 15.6787 49.7528 15.9283 49.7657 16.1918C49.7786 16.4552 49.6947 16.7142 49.5298 16.92C49.4298 17.05 49.3098 17.16 49.1998 17.28C47.4998 18.98 45.7997 20.67 44.1097 22.37L43.8098 22.76Z" fill="white"/>
<path d="M43.6899 42.3699C43.833 42.4195 43.9678 42.4903 44.0899 42.5799C45.8399 44.3199 47.5899 46.0599 49.3299 47.8199C49.537 48.0327 49.6941 48.2889 49.7899 48.5699C49.8385 48.7698 49.8241 48.9798 49.749 49.1713C49.6738 49.3628 49.5414 49.5264 49.3699 49.6399C49.1968 49.7698 48.9863 49.84 48.7699 49.84C48.5535 49.84 48.3429 49.7698 48.1699 49.6399C48.0254 49.5367 47.8914 49.4195 47.7699 49.29L42.5299 44.0499C42.4299 43.9399 42.3399 43.8099 42.2499 43.6899H42.1499C42.1499 43.8099 42.1499 43.92 42.1499 44.03C42.1499 45.2 42.1499 46.36 42.1499 47.53C42.1564 47.7938 42.0632 48.0504 41.889 48.2486C41.7148 48.4469 41.4724 48.5724 41.2099 48.6C40.962 48.6302 40.7112 48.5728 40.5012 48.4376C40.2912 48.3025 40.1351 48.0981 40.0599 47.8599C40.0231 47.6993 40.0063 47.5347 40.0099 47.3699V41.16C39.9889 40.9983 40.0051 40.8339 40.0574 40.6794C40.1096 40.525 40.1964 40.3845 40.3112 40.2687C40.426 40.1529 40.5658 40.0649 40.7198 40.0114C40.8738 39.9579 41.038 39.9403 41.1999 39.9599H47.1999C47.3364 39.95 47.4734 39.95 47.6099 39.9599C47.8831 39.9826 48.1377 40.1073 48.3231 40.3093C48.5084 40.5113 48.6108 40.7758 48.6099 41.0499C48.5969 41.3214 48.4793 41.5773 48.2816 41.7638C48.0839 41.9503 47.8216 42.0528 47.5499 42.0499C46.4399 42.0499 45.3299 42.0499 44.2199 42.0499H43.8299L43.6899 42.3699Z" fill="white"/>
</g>
</g>
</svg>
