<svg width="40" height="40" viewBox="0 0 40 40" fill="none" xmlns="http://www.w3.org/2000/svg">
<path d="M21.4901 0C22.1201 0.08 22.7501 0.130042 23.3801 0.230042C27.0429 0.789122 30.472 2.37605 33.2689 4.80646C36.0657 7.23687 38.1155 10.411 39.1801 13.96C40.6693 18.9248 40.1312 24.2774 37.6837 28.8464C35.2361 33.4155 31.0783 36.829 26.1201 38.34C24.7388 38.7793 23.3073 39.0414 21.86 39.12C21.7345 39.1297 21.6105 39.1532 21.4901 39.19H19.35C18.71 39.11 18.0601 39.06 17.4201 38.96C14.448 38.492 11.6233 37.3467 9.16449 35.6127C6.7057 33.8787 4.67865 31.6025 3.24005 28.96C1.33818 25.4942 0.529472 21.5341 0.920107 17.6C1.27722 14.0919 2.57128 10.7445 4.66669 7.90839C6.7621 5.07228 9.58162 2.85195 12.83 1.48004C14.5196 0.75275 16.3102 0.287395 18.1401 0.100037C18.5501 0.100037 18.95 1.22078e-05 19.35 -0.0499878L21.4901 0ZM20.4301 1.77002C16.904 1.76606 13.4558 2.80833 10.5223 4.76489C7.58873 6.72146 5.30161 9.50436 3.95038 12.7614C2.59915 16.0183 2.24451 19.603 2.93146 23.0616C3.61841 26.5202 5.31601 29.6973 7.80939 32.1907C10.3028 34.684 13.4798 36.3816 16.9384 37.0685C20.397 37.7555 23.9817 37.4009 27.2387 36.0497C30.4957 34.6985 33.2786 32.4113 35.2352 29.4778C37.1917 26.5442 38.234 23.0962 38.23 19.57C38.23 14.8492 36.3547 10.3217 33.0165 6.98352C29.6784 3.64537 25.151 1.77002 20.4301 1.77002Z" fill="#94B5DE"/>
<path d="M21.2599 29.35L20.0599 28.16L27.6699 20.5H10.6699V18.71H27.5399L19.9999 11.11L21.2999 9.79004L31.0499 19.56L21.2599 29.35Z" fill="#94B5DE"/>
</svg>
