<svg width="40" height="40" viewBox="0 0 40 40" fill="none" xmlns="http://www.w3.org/2000/svg">
<path d="M18.8872 39.9999C18.2472 39.9199 17.6073 39.8599 16.9673 39.7599C13.2286 39.191 9.72784 37.5738 6.87111 35.0959C4.01437 32.6179 1.91875 29.3808 0.827283 25.76C-0.667654 20.689 -0.122193 15.2346 2.3473 10.56C3.60802 8.19083 5.34019 6.1047 7.43727 4.42999C9.43265 2.82206 11.7169 1.61031 14.1672 0.859985C15.5789 0.417304 17.0401 0.151956 18.5172 0.0700073C18.6429 0.0612272 18.767 0.0377259 18.8872 0H21.0573C21.7173 0.08 22.3773 0.12999 23.0573 0.23999C27.3602 0.906923 31.3279 2.95993 34.3578 6.08716C37.3877 9.21438 39.3142 13.245 39.8449 17.5668C40.3755 21.8887 39.4812 26.2656 37.2977 30.0329C35.1143 33.8002 31.761 36.752 27.7472 38.44C26.0209 39.1877 24.1892 39.6633 22.3173 39.85C21.9073 39.85 21.4973 39.9499 21.0873 40.0099L18.8872 39.9999ZM19.9773 38.19C23.5762 38.194 27.0954 37.1303 30.0896 35.1335C33.0838 33.1367 35.4183 30.2966 36.7979 26.9726C38.1774 23.6486 38.5399 19.99 37.8395 16.4599C37.1391 12.9298 35.4072 9.68682 32.863 7.1413C30.3189 4.59578 27.0768 2.86215 23.5471 2.15979C20.0174 1.45743 16.3587 1.81792 13.0339 3.19562C9.70917 4.57332 6.86782 6.90628 4.8694 9.89935C2.87097 12.8924 1.80529 16.4111 1.80726 20.01C1.80726 24.8299 3.7213 29.4525 7.12855 32.8616C10.5358 36.2708 15.1574 38.1874 19.9773 38.19Z" fill="white"/>
<path d="M19.1273 10.0601L20.3474 11.28L12.5874 19.0901H29.9574V20.92H12.7374L20.4374 28.6801L19.1074 30.04L9.10742 20.04L19.1273 10.0601Z" fill="white"/>
</svg>
