<svg width="61" height="49" viewBox="0 0 61 49" fill="none" xmlns="http://www.w3.org/2000/svg">
<path d="M30.4403 48.7399H6.61033C5.23295 48.7772 3.8846 48.3394 2.79198 47.4999C1.69935 46.6604 0.92904 45.4704 0.610335 44.1298C0.485697 43.555 0.425273 42.968 0.430281 42.3798C0.430281 30.6198 0.430281 18.8598 0.430281 7.09984C0.349485 5.65631 0.792616 4.23216 1.67821 3.08934C2.5638 1.94653 3.83235 1.16192 5.25035 0.879838C5.75547 0.792796 6.26788 0.755965 6.78026 0.769853H54.0803C54.9301 0.717043 55.7814 0.845713 56.5776 1.14729C57.3739 1.44888 58.0968 1.91647 58.6983 2.519C59.2999 3.12153 59.7664 3.84518 60.0668 4.64189C60.3671 5.43861 60.4944 6.29013 60.4403 7.13985V42.4198C60.4913 43.2671 60.3621 44.1155 60.061 44.909C59.76 45.7026 59.294 46.4232 58.6938 47.0234C58.0937 47.6235 57.373 48.0895 56.5795 48.3905C55.7859 48.6916 54.9375 48.8209 54.0903 48.7699L30.4403 48.7399ZM3.50035 40.5698L4.22032 39.8798L14.9703 29.1398C15.4022 28.6335 15.9387 28.2269 16.543 27.948C17.1472 27.6692 17.8048 27.5248 18.4703 27.5248C19.1358 27.5248 19.7933 27.6692 20.3976 27.948C21.0018 28.2269 21.5385 28.6335 21.9703 29.1398L25.8203 32.9899L26.3603 32.3798C29.9803 28.0398 33.597 23.7065 37.2103 19.3798C37.5264 18.9754 37.8888 18.6096 38.2903 18.2898C38.7588 17.9345 39.2929 17.6751 39.8618 17.5265C40.4307 17.3779 41.0234 17.343 41.6058 17.4238C42.1883 17.5046 42.749 17.6996 43.256 17.9975C43.7629 18.2954 44.2062 18.6904 44.5603 19.1598C48.6403 23.8998 52.7102 28.6465 56.7702 33.3999C56.9402 33.6099 57.1203 33.8098 57.4103 34.1398C57.4103 33.8298 57.4103 33.6998 57.4103 33.5698C57.4103 24.6898 57.4103 15.8099 57.4103 6.92986C57.4391 6.49918 57.3746 6.06734 57.2213 5.66387C57.068 5.26039 56.8293 4.89477 56.5217 4.59194C56.2141 4.28911 55.8449 4.05622 55.4391 3.90917C55.0333 3.76211 54.6004 3.70436 54.1703 3.73985H6.60033C6.34231 3.73459 6.08439 3.75468 5.83031 3.79985C5.09736 3.94537 4.4451 4.35917 4.0012 4.96028C3.55731 5.56139 3.3537 6.30654 3.43028 7.04985V40.5599L3.50035 40.5698ZM3.99034 44.3898C4.30046 44.836 4.71969 45.1953 5.20811 45.4334C5.69653 45.6714 6.23776 45.7804 6.78026 45.7498H54.0803C54.5386 45.8023 55.0029 45.7507 55.4386 45.599C55.8743 45.4474 56.2701 45.1995 56.5968 44.8737C56.9235 44.548 57.1726 44.1529 57.3255 43.7176C57.4785 43.2824 57.5314 42.8183 57.4803 42.3598C57.4803 41.4898 57.4803 40.6198 57.4803 39.7598C57.5001 39.4606 57.4578 39.1605 57.3563 38.8783C57.2548 38.5961 57.0961 38.3379 56.8902 38.1199C52.0436 32.4932 47.2069 26.8565 42.3802 21.2099C41.4402 20.1099 40.5103 20.1299 39.5903 21.2099L27.4403 35.8699C26.4403 37.0099 25.6703 37.0399 24.6203 35.9899L19.9003 31.2598C18.9003 30.2598 18.1303 30.2598 17.0903 31.2598L4.5703 43.7799L3.99034 44.3898Z" fill="white"/>
<path d="M15.4399 9.76001C16.6266 9.76001 17.7866 10.1119 18.7733 10.7712C19.76 11.4305 20.5292 12.3676 20.9833 13.4639C21.4374 14.5603 21.5562 15.7667 21.3247 16.9305C21.0932 18.0944 20.5217 19.1635 19.6826 20.0027C18.8435 20.8418 17.7744 21.4132 16.6105 21.6447C15.4466 21.8762 14.2402 21.7574 13.1438 21.3033C12.0474 20.8492 11.1105 20.0801 10.4512 19.0934C9.79188 18.1067 9.43994 16.9467 9.43994 15.76C9.43994 14.1687 10.072 12.6426 11.1973 11.5174C12.3225 10.3921 13.8486 9.76001 15.4399 9.76001ZM12.4399 15.76C12.4399 16.3534 12.6159 16.9334 12.9456 17.4267C13.2752 17.9201 13.7437 18.3046 14.2919 18.5316C14.84 18.7587 15.4433 18.8181 16.0253 18.7024C16.6072 18.5866 17.1417 18.3009 17.5613 17.8813C17.9808 17.4618 18.2666 16.9272 18.3823 16.3453C18.4981 15.7633 18.4386 15.1601 18.2115 14.612C17.9845 14.0638 17.6 13.5952 17.1067 13.2656C16.6133 12.936 16.0333 12.76 15.4399 12.76C14.653 12.7784 13.9048 13.1052 13.3567 13.6702C12.8086 14.2351 12.5044 14.9929 12.5099 15.78L12.4399 15.76Z" fill="white"/>
</svg>
